<svg width="40" height="40" version="1.1" id="Layer_1" xmlns="http://www.w3.org/2000/svg" xmlns:xlink="http://www.w3.org/1999/xlink" x="0px" y="0px" style="enable-background:new 0 0 612 792;" xml:space="preserve" viewBox="223.16 175.82 201.09 209.9"> <style type="text/css"> 	.st0{fill:#A28244;} 	.st1{fill:#B18D4B;} 	.st2{stroke:#000000;stroke-miterlimit:10;} 	.st3{fill:#A57F41;} 	.st4{fill:#FFFFFF;} 	.st5{fill:none;stroke:#405CAA;stroke-miterlimit:10;} </style> <path d="M260.26,377.22h122.95c22.6-19.52,37.09-49.56,37.09-83.26c0-58.83-44.13-106.52-98.57-106.52 &#9;c-54.44,0-98.57,47.69-98.57,106.52C223.17,327.66,237.66,357.7,260.26,377.22z"/> <ellipse class="st0" cx="237.37" cy="294.35" rx="8.7" ry="15.69"/> <ellipse class="st0" cx="409.11" cy="294.35" rx="8.7" ry="15.69"/> <path class="st1" d="M290.45,377.22c4.85,2.84,15.57,8.23,30.2,8.49c15.89,0.28,27.53-5.65,32.38-8.49 &#9;c5.16-0.97,23.54-5.06,37.87-22.11c9.49-11.29,15.21-25.87,15.21-41.78v-38.75c0-35.9-29.1-65-65-65h-38.75c-35.9,0-65,29.1-65,65 &#9;v38.75C237.37,345.15,260.25,371.62,290.45,377.22z"/> <path d="M60.61,252.65"/> <ellipse transform="matrix(0.3343 -0.9425 0.9425 0.3343 3.0964 480.6716)" class="st2" cx="341.8" cy="238.14" rx="39.75" ry="72.84"/> <path class="st3" d="M347.85,347.64c-3.72,3.11-13.48,10.38-27,10.53c-12.85,0.14-26.42-6.18-25.89-10.33 &#9;c0.66-5.13,22.93-6.57,27.21-6.82"/> <path class="st2" d="M264.53,287.18c0.14-0.28,0.36-0.67,0.66-1.13c0.28-0.42,2.06-3,5.39-4.52c0.94-0.43,2.5-1,7.15-1.3 &#9;c4.3-0.28,8.23-0.53,13.2,0.43c2.22,0.43,10.89,2.12,11,4.78c0.08,2.16-5.47,4.08-8.8,4.78c0,0-3.62,0.76-16.5-0.87l0,0"/> <path class="st2" d="M370.1,287.18c-0.14-0.28-0.36-0.67-0.66-1.13c-0.28-0.42-2.06-3-5.38-4.52c-0.94-0.43-2.5-1-7.15-1.3 &#9;c-4.3-0.28-8.23-0.53-13.2,0.43c-2.22,0.43-10.89,2.12-11,4.78c-0.08,2.16,5.47,4.08,8.8,4.78c0,0,3.62,0.76,16.5-0.87l0,0"/> <circle class="st2" cx="283.23" cy="295.4" r="3.48"/> <circle class="st2" cx="351.4" cy="295.4" r="3.48"/> <circle class="st0" cx="312.34" cy="326.17" r="2.61"/> <circle class="st0" cx="325.56" cy="326.17" r="2.61"/> <path class="st4" d="M296.13,347.71c3.14,0.73,7.35,1.61,12.37,2.33c1.16,0.17,5.29,0.76,9.31,1.03c4.9,0.34,12.47,0.41,22.26-1.25"/> <path class="st3" d="M317.3,284.41c-1.85,1.16-5.92,4.11-8.25,9.66c-3.06,7.29-1.86,16.11,2.94,22.92"/> <circle class="st4" cx="284.23" cy="293.4" r="2.12"/> <circle class="st4" cx="352.52" cy="293.4" r="2.12"/> <circle class="st4" cx="411.23" cy="307.93" r="2.12"/> <circle class="st4" cx="235.25" cy="310.04" r="2.12"/> <path class="st5" d="M299,211.12c5.17,8.95,13.19,20.14,25.41,30.35c32.02,26.75,69.6,27.29,81.96,26.94"/> <path class="st5" d="M354.06,146.88"/> <path class="st4" d="M290.45,377.22"/> </svg>