<svg width="65" height="65" version="1.1" id="Layer_1" xmlns="http://www.w3.org/2000/svg" xmlns:xlink="http://www.w3.org/1999/xlink" x="0px" y="0px" style="enable-background:new 0 0 612 792;" xml:space="preserve" viewBox="191.97 168.28 239.21 182.26"> <style type="text/css"> 	.st0{fill:#0B0907;stroke:#73CCD6;stroke-miterlimit:10;} 	.st1{fill:#9C7241;stroke:#FFFFFF;stroke-miterlimit:10;} 	.st2{fill:#0B0907;stroke:#D2DE26;stroke-miterlimit:10;} 	.st3{fill:#0B0907;stroke:#A1CD3A;stroke-miterlimit:10;} 	.st4{fill:#0B0907;stroke:#CE3927;stroke-miterlimit:10;} 	.st5{fill:#0B0907;stroke:#A22067;stroke-miterlimit:10;} 	.st6{fill:#0B0907;stroke:#7CC242;stroke-miterlimit:10;} 	.st7{fill:#0B0907;stroke:#6FC388;stroke-miterlimit:10;} 	.st8{fill:#0B0907;stroke:#426FB6;stroke-miterlimit:10;} 	.st9{fill:#0B0907;stroke:#313D98;stroke-miterlimit:10;} 	.st10{fill:#0B0907;stroke:#405CAA;stroke-miterlimit:10;} 	.st11{fill:#0B0907;stroke:#E61C43;stroke-miterlimit:10;} 	.st12{fill:#0B0907;stroke:#AE4298;stroke-miterlimit:10;} 	.st13{fill:#0B0907;stroke:#A11D55;stroke-miterlimit:10;} 	.st14{fill:#0B0907;stroke:#804C9E;stroke-miterlimit:10;} 	.st15{fill:#0B0907;stroke:#F99F1E;stroke-miterlimit:10;} 	.st16{fill:#0B0907;} 	.st17{fill:#F2F5F7;} 	.st18{fill:#0B0907;stroke:#5253A3;stroke-miterlimit:10;} 	.st19{fill:#FFFFFF;stroke:#0B0907;stroke-miterlimit:10;} </style> <circle class="st0" cx="331.32" cy="192.48" r="23.7"/> <ellipse class="st1" cx="312.19" cy="279.61" rx="94.78" ry="70.43"/> <circle class="st2" cx="386.33" cy="236.89" r="23.7"/> <circle class="st3" cx="362.64" cy="222.33" r="23.7"/> <circle class="st4" cx="406.98" cy="279.93" r="23.7"/> <circle class="st5" cx="234.85" cy="236.89" r="23.7"/> <circle class="st6" cx="360.25" cy="209.17" r="23.7"/> <circle class="st7" cx="333.94" cy="219.72" r="23.7"/> <circle class="st0" cx="315.25" cy="202.33" r="23.7"/> <circle class="st8" cx="294.49" cy="224.63" r="23.7"/> <circle class="st9" cx="280.88" cy="198.63" r="23.7"/> <circle class="st10" cx="270.8" cy="226.02" r="23.7"/> <circle class="st11" cx="216.17" cy="264.83" r="23.7"/> <circle class="st12" cx="241.16" cy="252.76" r="23.7"/> <circle class="st13" cx="228.94" cy="286.67" r="23.7"/> <circle class="st14" cx="241.16" cy="310.37" r="23.7"/> <ellipse transform="matrix(0.1602 -0.9871 0.9871 0.1602 83.5669 610.7011)" class="st15" cx="400.68" cy="256.24" rx="23.7" ry="23.7"/> <circle class="st16" cx="291.55" cy="269.96" r="7.91"/> <circle class="st16" cx="352.34" cy="269.96" r="7.91"/> <circle class="st17" cx="349.65" cy="264.74" r="2.69"/> <circle class="st17" cx="288.32" cy="264.7" r="2.69"/> <circle class="st18" cx="241.16" cy="213.2" r="23.7"/> <g> 	<path class="st19" d="M322.33,326.09c-13.63-0.3-27.25-9.27-26.35-14.59c0.93-5.56,17.68-6.97,24.94-7.06 &#9;&#9;c10.66-0.13,27.98,2.26,28.71,8C350.33,317.88,336.1,326.39,322.33,326.09z"/> 	<path class="st16" d="M349.66,312.79c0-3.27-12.02-3.46-26.86-3.46s-26.86,0.19-26.86,3.46c0,2.04,4.51,6.79,11.52,10.07h30.04 &#9;&#9;C344.78,319.59,349.65,314.84,349.66,312.79z"/> </g> </svg>